<?xml version="1.0" encoding="utf-8"?>
<svg xmlns="http://www.w3.org/2000/svg" viewBox="0 0 113.69 92.92">
<g><g><path d="M107.39,89.94H32.47a3.54,3.54,0,0,1-3.54-3.54V85a.53.53,0,0,1,.53-.53H110.4a.53.53,0,0,1,.53.53V86.4A3.55,3.55,0,0,1,107.39,89.94ZM30,85.48v.92a2.48,2.48,0,0,0,2.48,2.47h74.92a2.48,2.48,0,0,0,2.48-2.47v-.92Z"/><path d="M75.61,87.76H64.22a.53.53,0,0,1-.53-.53V85a.53.53,0,0,1,.53-.53.53.53,0,0,1,.53.53v1.7H75.08V85a.53.53,0,0,1,.53-.53.53.53,0,0,1,.53.53v2.23A.53.53,0,0,1,75.61,87.76Z"/><path d="M104.83,84.89a.53.53,0,0,1-.53-.53V46a2.66,2.66,0,0,0-2.7-2.69H89.45a.54.54,0,0,1,0-1.07H101.6A3.76,3.76,0,0,1,105.37,46V84.36A.53.53,0,0,1,104.83,84.89Z"/><path d="M34.93,85.25a.53.53,0,0,1-.53-.53V46a3.79,3.79,0,0,1,3.81-3.76H50.53a.54.54,0,0,1,0,1.07H38.21A2.73,2.73,0,0,0,35.46,46V84.72A.53.53,0,0,1,34.93,85.25Z"/><path d="M39.53,81.74a.55.55,0,0,1-.38-.16A.54.54,0,0,1,39,81.2V47.32a.53.53,0,0,1,.53-.53h11a.53.53,0,0,1,.53.53.53.53,0,0,1-.53.53H40.06V80.67l59.72,0V47.85H89.45a.52.52,0,0,1-.53-.53.53.53,0,0,1,.53-.53h10.86a.53.53,0,0,1,.53.53V81.16a.54.54,0,0,1-.53.54l-60.78,0Z"/><path d="M103.88,92.92H58.67a.53.53,0,0,1-.53-.53.53.53,0,0,1,.53-.53h45.21a.53.53,0,0,1,.53.53A.53.53,0,0,1,103.88,92.92Z"/><path d="M69.86,77.6a.58.58,0,0,1-.19,0L50.45,70.27a.53.53,0,0,1-.34-.5V29.21a.53.53,0,0,1,.53-.53H89.06a.53.53,0,0,1,.53.53V69.77a.54.54,0,0,1-.34.5L70,77.56A.58.58,0,0,1,69.86,77.6ZM51.17,69.4l18.69,7.1,18.67-7.1V29.74H51.17Zm37.89.39Z"/><path d="M69.94,63.9A13.07,13.07,0,1,1,83,50.84,13.08,13.08,0,0,1,69.94,63.9Zm0-25.07a12,12,0,1,0,12,12A12,12,0,0,0,69.94,38.83Z"/><path d="M68.08,56.6a.56.56,0,0,1-.35-.13L62.52,52a.53.53,0,1,1,.69-.81L68,55.32l8.56-10a.53.53,0,1,1,.81.69L68.48,56.41a.56.56,0,0,1-.36.19Z"/><path d="M61.6,21.82H58.35a.53.53,0,0,1-.53-.53V14.67H53.26a.53.53,0,0,1-.53-.53v-4a.52.52,0,0,1,.53-.53H86.62a9,9,0,0,1,3-4.41,8.76,8.76,0,0,1,5.52-1.94,8.88,8.88,0,1,1-8.51,11.44H70.55v4.42a.52.52,0,0,1-.53.53H66.63a.52.52,0,0,1-.53-.53V14.67h-4v6.62A.54.54,0,0,1,61.6,21.82Zm-2.72-1.06h2.19V14.14a.53.53,0,0,1,.53-.53h5a.53.53,0,0,1,.53.53v4.42h2.33V14.14a.53.53,0,0,1,.53-.53H87a.54.54,0,0,1,.52.4,7.84,7.84,0,1,0,0-3.77.54.54,0,0,1-.52.4H53.79v3h4.56a.53.53,0,0,1,.53.53Z"/><path d="M94.94,17.12A5.17,5.17,0,1,1,100.11,12,5.18,5.18,0,0,1,94.94,17.12Zm0-9.28A4.11,4.11,0,1,0,99.05,12,4.11,4.11,0,0,0,94.94,7.84Z"/><path d="M26.14,51.5H9.8a2.66,2.66,0,0,1-2.65-2.66V32.43A2.65,2.65,0,0,1,9.8,29.78H26.14a2.66,2.66,0,0,1,2.66,2.65V48.84A2.66,2.66,0,0,1,26.14,51.5ZM9.8,30.84a1.59,1.59,0,0,0-1.59,1.59V48.84a1.6,1.6,0,0,0,1.59,1.6H26.14a1.6,1.6,0,0,0,1.6-1.6V32.43a1.6,1.6,0,0,0-1.6-1.59Z"/><path d="M25.12,30.84h-.07a.52.52,0,0,1-.46-.59c.52-4.06-.55-8.53-2.62-10.88a4.79,4.79,0,0,0-7.51,0c-2.06,2.35-3.14,6.82-2.61,10.89a.53.53,0,0,1-1.06.14,18.53,18.53,0,0,1,.33-6.33,12.29,12.29,0,0,1,2.54-5.4,5.86,5.86,0,0,1,9.11,0,12.36,12.36,0,0,1,2.55,5.4,18.46,18.46,0,0,1,.32,6.32A.53.53,0,0,1,25.12,30.84Z"/><path d="M20.26,45.63H15.67a1.6,1.6,0,0,1-1.44-2.28l1.66-3.47a2.61,2.61,0,0,1-.57-1.63,2.65,2.65,0,0,1,.83-1.93,2.61,2.61,0,0,1,2-.71,2.65,2.65,0,0,1,1.92,4.25l1.64,3.5a1.58,1.58,0,0,1-.09,1.53A1.61,1.61,0,0,1,20.26,45.63Zm-2.3-9a1.56,1.56,0,0,0-1.08.42,1.59,1.59,0,0,0-.5,1.16,1.57,1.57,0,0,0,.5,1.15A.54.54,0,0,1,17,40L15.19,43.8a.54.54,0,0,0,0,.52.54.54,0,0,0,.45.24h4.59a.53.53,0,0,0,.45-.24.52.52,0,0,0,0-.51L19,40a.54.54,0,0,1,.11-.61,1.54,1.54,0,0,0,.48-1.22,1.59,1.59,0,0,0-1.47-1.49Z"/><path d="M30.83,30.87h-.6a.52.52,0,0,1-.53-.53.53.53,0,0,1,.53-.53h.6a.88.88,0,0,0,.88-.88V12.48a.53.53,0,0,1,.53-.53.52.52,0,0,1,.53.53V28.93A1.94,1.94,0,0,1,30.83,30.87Z"/><path d="M32.23,12.65A3.79,3.79,0,1,1,36,8.87,3.79,3.79,0,0,1,32.23,12.65Zm0-6.5A2.72,2.72,0,1,0,35,8.87,2.73,2.73,0,0,0,32.23,6.15Z"/><path d="M6.24,31.23h-.6a2,2,0,0,1-1.95-1.95V12.83a.53.53,0,0,1,.53-.53.53.53,0,0,1,.53.53V29.28a.89.89,0,0,0,.89.89h.6a.53.53,0,0,1,.53.53A.53.53,0,0,1,6.24,31.23Z"/><path d="M4.22,13A3.87,3.87,0,0,1,1.53,11.9a4,4,0,0,1-.29-5.16,1.86,1.86,0,0,1,.49-.48,4,4,0,0,1,5.16.29,4,4,0,0,1,.29,5.16,1.86,1.86,0,0,1-.49.48A4.3,4.3,0,0,1,4.22,13Zm0-6.51a3.31,3.31,0,0,0-1.87.63.7.7,0,0,0-.21.21h0a2.87,2.87,0,0,0,.16,3.81,2.88,2.88,0,0,0,3.81.17.84.84,0,0,0,.21-.21A2.87,2.87,0,0,0,6.14,7.3,2.75,2.75,0,0,0,4.2,6.5ZM1.68,7Z"/><path d="M3.8,57.94a.53.53,0,0,1-.53-.53V41a1.94,1.94,0,0,1,1.94-2h.61a.53.53,0,0,1,0,1.06H5.21a.89.89,0,0,0-.88.89V57.41A.53.53,0,0,1,3.8,57.94Z"/><path d="M3.79,64.76A3.79,3.79,0,1,1,7.57,61,3.79,3.79,0,0,1,3.79,64.76Zm0-6.51A2.73,2.73,0,1,0,6.51,61,2.73,2.73,0,0,0,3.79,58.25Z"/><path d="M14,77.61a.53.53,0,0,1-.53-.54V54.5A.53.53,0,0,1,14,54a.53.53,0,0,1,.53.53V77.07A.54.54,0,0,1,14,77.61Z"/><path d="M23.89,67.2a.53.53,0,0,1-.53-.53V54.5a.53.53,0,0,1,.53-.53.53.53,0,0,1,.53.53V66.67A.52.52,0,0,1,23.89,67.2Z"/><path d="M14,84.15a3.79,3.79,0,1,1,3.79-3.79A3.79,3.79,0,0,1,14,84.15Zm0-6.51a2.73,2.73,0,1,0,2.73,2.72A2.72,2.72,0,0,0,14,77.64Z"/><path d="M23.88,73.75A3.79,3.79,0,1,1,27.66,70,3.79,3.79,0,0,1,23.88,73.75Zm0-6.51A2.73,2.73,0,1,0,26.6,70,2.72,2.72,0,0,0,23.88,67.24Z"/><path d="M43,37.38a3.79,3.79,0,1,1,3.79-3.78A3.79,3.79,0,0,1,43,37.38Zm0-6.51a2.73,2.73,0,1,0,2.73,2.73A2.73,2.73,0,0,0,43,30.87Z"/><path d="M41.51,39.93H30.58a.53.53,0,1,1,0-1.06H41.51A.89.89,0,0,0,42.4,38v-.74a.53.53,0,0,1,.53-.53.53.53,0,0,1,.53.53V38A2,2,0,0,1,41.51,39.93Z"/><path d="M91.29,27.19H62.84a.53.53,0,0,1-.53-.53.53.53,0,0,1,.53-.53H91.29a.53.53,0,0,1,.53.53A.53.53,0,0,1,91.29,27.19Z"/><path d="M91.25,41.17a.53.53,0,0,1-.53-.53V26.7a.53.53,0,0,1,1.06,0V40.64A.53.53,0,0,1,91.25,41.17Z"/><path d="M4.57,92.28a.71.71,0,0,1-.44-.9h0a.71.71,0,0,1,.9-.44H5a.71.71,0,0,1,.44.9h0a.7.7,0,0,1-.67.48h0A.59.59,0,0,1,4.57,92.28Zm2.27-.59a.71.71,0,0,1,.22-1h0a.71.71,0,0,1,1,.22H8a.72.72,0,0,1-.22,1h0a.76.76,0,0,1-.38.11h0A.7.7,0,0,1,6.84,91.69ZM2.25,90a.71.71,0,0,1,.44-.9h0a.7.7,0,0,1,.9.43h0a.71.71,0,0,1-.43.9h0a.67.67,0,0,1-.24,0h0A.72.72,0,0,1,2.25,90Zm6.52-.2A.71.71,0,0,1,8.15,89h0a.71.71,0,0,1,.78-.62h0a.7.7,0,0,1,.62.78h0a.71.71,0,0,1-.7.63H8.77ZM2.84,87.7a.72.72,0,0,1-.23-1h0a.71.71,0,0,1,1-.22h0a.7.7,0,0,1,.22,1h0a.69.69,0,0,1-.6.34h0A.7.7,0,0,1,2.84,87.7Zm4.63-.64h0a.71.71,0,0,1,0-1h0a.71.71,0,0,1,1,0h0a.7.7,0,0,1,0,1h0a.7.7,0,0,1-.5.21H8A.7.7,0,0,1,7.47,87.06Zm-2.72-1.3A.71.71,0,0,1,5.38,85h0a.69.69,0,0,1,.78.62h0a.69.69,0,0,1-.62.78H5.46A.72.72,0,0,1,4.75,85.76Z"/><path d="M111.55,71.77a.7.7,0,0,1,.07-1h0a.69.69,0,0,1,1,.07h0a.7.7,0,0,1-.06,1h0a.71.71,0,0,1-.47.18h0A.69.69,0,0,1,111.55,71.77Zm-2.41.12a.71.71,0,0,1-.33-1h0a.71.71,0,0,1,1-.32h0a.7.7,0,0,1,.32.95h0a.69.69,0,0,1-.63.39h0A.67.67,0,0,1,109.14,71.89Zm-2.32-2.25a.71.71,0,0,1,.4-.91h0a.71.71,0,0,1,.92.4h0a.71.71,0,0,1-.41.92h0a.73.73,0,0,1-.25,0h0A.69.69,0,0,1,106.82,69.64Zm6-.24a.72.72,0,0,1-.52-.86h0a.72.72,0,0,1,.86-.52h0a.72.72,0,0,1,.52.86h0a.71.71,0,0,1-.69.54h0Zm-5.43-2.08a.71.71,0,0,1-.24-1h0a.69.69,0,0,1,1-.24h0a.69.69,0,0,1,.24,1h0a.69.69,0,0,1-.6.34h0A.71.71,0,0,1,107.38,67.32Zm4.66-.71h0a.7.7,0,0,1,0-1h0a.71.71,0,0,1,1,0h0a.7.7,0,0,1,0,1h0a.67.67,0,0,1-.5.21h0A.7.7,0,0,1,112,66.61Zm-2.75-1.28a.7.7,0,0,1,.62-.79h0a.71.71,0,0,1,.79.61h0a.71.71,0,0,1-.62.79H110A.72.72,0,0,1,109.29,65.33Z"/><path d="M99.09,36.46h0a.71.71,0,0,1-.43-.91h0a.71.71,0,0,1,.9-.43h0a.7.7,0,0,1,.43.9h0a.7.7,0,0,1-.66.47h0Zm2.28-.6a.7.7,0,0,1,.22-1h0a.7.7,0,0,1,1,.22h0a.7.7,0,0,1-.22,1h0a.67.67,0,0,1-.38.11h0A.68.68,0,0,1,101.37,35.86ZM96.8,34.15h0c0-.37.06-.78.43-.9h0a.69.69,0,0,1,.89.43h0a.71.71,0,0,1-.44.9h0a.54.54,0,0,1-.22,0h0A.67.67,0,0,1,96.8,34.15Zm6.5-.21a.71.71,0,0,1-.63-.78h0a.69.69,0,0,1,.78-.62h0a.71.71,0,0,1,.63.78h0a.71.71,0,0,1-.71.63h-.07Zm-5.94-2.07a.7.7,0,0,1-.22-1h0a.71.71,0,0,1,1-.23h0a.71.71,0,0,1,.23,1h0a.73.73,0,0,1-.6.33h0A.67.67,0,0,1,97.36,31.87Zm4.64-.63h0a.7.7,0,0,1,0-1h0a.7.7,0,0,1,1,0h0a.72.72,0,0,1,0,1h0a.7.7,0,0,1-.5.21h0A.74.74,0,0,1,102,31.24Zm-2.72-1.3a.72.72,0,0,1,.62-.79h0a.72.72,0,0,1,.79.63h0a.71.71,0,0,1-.63.78H100A.7.7,0,0,1,99.28,29.94Z"/><path d="M17,9.14a.71.71,0,0,1-.44-.9h0a.71.71,0,0,1,.91-.43h0a.71.71,0,0,1,.43.9h0a.7.7,0,0,1-.67.47h0A.66.66,0,0,1,17,9.14Zm2.29-.59a.69.69,0,0,1,.23-1h0a.7.7,0,0,1,1,.22h0a.7.7,0,0,1-.23,1h0a.62.62,0,0,1-.37.11h0A.68.68,0,0,1,19.24,8.55Zm-4.6-1.71h0a.71.71,0,0,1,.43-.91h0a.71.71,0,0,1,.9.44h0a.7.7,0,0,1-.43.9h0a.67.67,0,0,1-.24,0h0A.7.7,0,0,1,14.64,6.84Zm6.51-.21a.69.69,0,0,1-.62-.78h0a.71.71,0,0,1,.78-.63h0a.71.71,0,0,1,.62.79h0a.69.69,0,0,1-.7.62h-.08ZM15.22,4.56a.7.7,0,0,1-.22-1h0a.71.71,0,0,1,1-.23h0a.71.71,0,0,1,.22,1h0a.7.7,0,0,1-.6.33h0A.66.66,0,0,1,15.22,4.56Zm4.63-.64h0a.71.71,0,0,1,0-1h0a.72.72,0,0,1,1,0h0a.7.7,0,0,1,0,1h0a.7.7,0,0,1-.5.21h0A.7.7,0,0,1,19.85,3.92ZM17.14,2.63a.71.71,0,0,1,.62-.79h0a.71.71,0,0,1,.78.63h0a.7.7,0,0,1-.62.78h-.08A.7.7,0,0,1,17.14,2.63Z"/><path d="M70.44,7.3h0A.7.7,0,0,1,70,6.4h0A.7.7,0,0,1,70.9,6h0a.71.71,0,0,1,.44.9h0a.71.71,0,0,1-.67.47h0A.62.62,0,0,1,70.44,7.3Zm2.27-.59a.7.7,0,0,1,.22-1h0a.71.71,0,0,1,1,.22h0a.7.7,0,0,1-.22,1h0a.67.67,0,0,1-.38.11h0A.68.68,0,0,1,72.71,6.71ZM68.12,5h0a.72.72,0,0,1,.44-.91h0a.72.72,0,0,1,.9.44h0a.71.71,0,0,1-.43.9h0a.67.67,0,0,1-.24,0h0A.72.72,0,0,1,68.12,5Zm6.52-.21A.69.69,0,0,1,74,4h0a.69.69,0,0,1,.78-.62h0a.69.69,0,0,1,.62.78h0a.7.7,0,0,1-.7.63h-.08ZM68.71,2.72a.7.7,0,0,1-.22-1h0a.71.71,0,0,1,1-.23h0a.71.71,0,0,1,.22,1h0a.7.7,0,0,1-.6.33h0A.66.66,0,0,1,68.71,2.72Zm4.63-.64h0a.71.71,0,0,1,0-1h0a.7.7,0,0,1,1,0h0a.7.7,0,0,1,0,1h0a.7.7,0,0,1-.5.21h0A.7.7,0,0,1,73.34,2.08ZM70.63.79A.71.71,0,0,1,71.25,0h0A.71.71,0,0,1,72,.63h0a.69.69,0,0,1-.62.78h-.08A.7.7,0,0,1,70.63.79Z"/><path d="M21.63,89.42a.53.53,0,0,1-.53-.53v-3.4a.53.53,0,1,1,1.06,0v3.4A.53.53,0,0,1,21.63,89.42Z"/><path d="M23.36,87.76H20a.53.53,0,0,1-.53-.53A.52.52,0,0,1,20,86.7h3.39a.52.52,0,0,1,.53.53A.53.53,0,0,1,23.36,87.76Z"/><path d="M41.94,19.8a.54.54,0,0,1-.54-.53v-3.4a.54.54,0,0,1,1.07,0v3.4A.53.53,0,0,1,41.94,19.8Z"/><path d="M43.67,18.14h-3.4a.53.53,0,0,1-.53-.53.53.53,0,0,1,.53-.53h3.4a.53.53,0,0,1,.53.53A.53.53,0,0,1,43.67,18.14Z"/><path d="M110.35,46.62a.53.53,0,0,1-.53-.53v-3.4a.53.53,0,0,1,.53-.53.53.53,0,0,1,.53.53v3.4A.53.53,0,0,1,110.35,46.62Z"/><path d="M112.09,45h-3.4a.53.53,0,0,1-.53-.53.53.53,0,0,1,.53-.53h3.4a.53.53,0,0,1,.53.53A.53.53,0,0,1,112.09,45Z"/><path d="M108.66,11.45a.54.54,0,0,1-.54-.53V7.53a.54.54,0,1,1,1.07,0v3.39A.53.53,0,0,1,108.66,11.45Z"/><path d="M110.39,9.79H107a.53.53,0,0,1,0-1.06h3.4a.53.53,0,1,1,0,1.06Z"/></g></g></svg>