<?xml version="1.0" encoding="utf-8"?>
<svg xmlns="http://www.w3.org/2000/svg" viewBox="0 0 110 90.92"><g><g><path d="M38.91,1.39A2.49,2.49,0,1,0,41.4,3.88,2.48,2.48,0,0,0,38.91,1.39Z"/><path d="M22.11,13.28a2.49,2.49,0,1,0,2.49,2.49A2.49,2.49,0,0,0,22.11,13.28Z"/><path d="M3.17,12.5A2.49,2.49,0,1,0,5.66,15,2.48,2.48,0,0,0,3.17,12.5Z"/><path d="M3,.53A2.5,2.5,0,1,0,5.52,3,2.5,2.5,0,0,0,3,.53Z"/><circle cx="10.43" cy="7.08" r="1.78"/><path d="M71.09,1.39a2.49,2.49,0,1,0,2.49,2.49A2.48,2.48,0,0,0,71.09,1.39Z"/><path d="M87.89,13.28a2.49,2.49,0,1,0,2.5,2.49A2.49,2.49,0,0,0,87.89,13.28Z"/><path d="M106.83,12.5A2.49,2.49,0,1,0,109.32,15,2.49,2.49,0,0,0,106.83,12.5Z"/><path d="M107,.53a2.5,2.5,0,1,0,2.5,2.5A2.5,2.5,0,0,0,107,.53Z"/><circle cx="99.57" cy="7.08" r="1.78"/><path d="M99.71,78.05a.71.71,0,1,0-.75,1.2.67.67,0,0,0,.38.11.73.73,0,0,0,.6-.33A.7.7,0,0,0,99.71,78.05Z"/><path d="M101.17,82.52a.71.71,0,1,0-.47,1.34.66.66,0,0,0,.23,0,.71.71,0,0,0,.24-1.38Z"/><path d="M103.62,78.61h0a.71.71,0,0,0,1,0,.73.73,0,0,0,0-1h0a.72.72,0,0,0-1,0,.71.71,0,0,0,0,1Z"/><path d="M98.81,80.63A.71.71,0,0,0,99,82a1,1,0,0,0,.24,0,.71.71,0,0,0-.47-1.35Z"/><path d="M105.09,79.92a.71.71,0,1,0-.16,1.41H105a.71.71,0,0,0,.7-.64A.69.69,0,0,0,105.09,79.92Z"/><path d="M103.21,82.29a.71.71,0,0,0-.23,1,.73.73,0,0,0,.61.33.67.67,0,0,0,.38-.11.71.71,0,1,0-.76-1.2Z"/><path d="M101.51,76.52a.69.69,0,0,0-.62.78.71.71,0,0,0,.7.64h.09a.71.71,0,0,0-.17-1.41Z"/><path d="M68.69,74.72a.72.72,0,0,0-.44.91.73.73,0,0,0,.68.48,1,1,0,0,0,.23,0,.71.71,0,1,0-.47-1.35Z"/><path d="M69.6,72.14a.71.71,0,0,0-1,.22h0a.71.71,0,0,0,.22,1,.67.67,0,0,0,.38.11.7.7,0,0,0,.6-.33A.71.71,0,0,0,69.6,72.14Z"/><path d="M75,74a.72.72,0,0,0-.79.63.71.71,0,0,0,.63.78h.08A.71.71,0,0,0,75,74Z"/><path d="M73.5,72.7h0a.73.73,0,0,0,.51.21.7.7,0,0,0,.5-.21.71.71,0,0,0,0-1h0a.71.71,0,0,0-1,0,.7.7,0,0,0,0,1Z"/><path d="M73.09,76.38a.71.71,0,0,0-.22,1,.7.7,0,0,0,.6.33.67.67,0,0,0,.38-.11.71.71,0,0,0-.76-1.2Z"/><path d="M71.4,70.61A.71.71,0,0,0,71.48,72h.08a.7.7,0,0,0,.62-.79A.69.69,0,0,0,71.4,70.61Z"/><path d="M71.05,76.61a.72.72,0,0,0-.91.44.71.71,0,0,0,.44.9.67.67,0,0,0,.24,0,.71.71,0,0,0,.23-1.38Z"/><path d="M21.84,81.7a.71.71,0,0,0-.43.91.7.7,0,0,0,.67.47.62.62,0,0,0,.23,0,.71.71,0,0,0,.44-.9A.72.72,0,0,0,21.84,81.7Z"/><path d="M24.2,83.59a.71.71,0,0,0-.47,1.34A.67.67,0,0,0,24,85a.71.71,0,0,0,.23-1.38Z"/><path d="M26.65,79.67h0a.68.68,0,0,0,.5.2.69.69,0,0,0,.5-.2.71.71,0,0,0,0-1h0a.71.71,0,1,0-1,1Z"/><path d="M22.75,79.11a.72.72,0,0,0-1,.23.71.71,0,0,0,.22,1,.76.76,0,0,0,.38.11.7.7,0,0,0,.6-.33A.72.72,0,0,0,22.75,79.11Z"/><path d="M24.55,77.58a.72.72,0,0,0-.63.79.71.71,0,0,0,.71.63h.08a.71.71,0,0,0-.16-1.42Z"/><path d="M28.12,81A.71.71,0,1,0,28,82.4H28A.71.71,0,0,0,28.12,81Z"/><path d="M26.24,83.35a.72.72,0,0,0-.22,1,.73.73,0,0,0,.6.33.76.76,0,0,0,.38-.11.71.71,0,0,0,.22-1A.7.7,0,0,0,26.24,83.35Z"/><path d="M3.31,68.29a.71.71,0,1,0-.75,1.21.7.7,0,0,0,.37.11.72.72,0,0,0,.61-.34A.71.71,0,0,0,3.31,68.29Z"/><path d="M2.4,70.88a.71.71,0,0,0,.24,1.38.67.67,0,0,0,.24,0,.71.71,0,0,0-.48-1.34Z"/><path d="M7.22,68.85h0a.74.74,0,0,0,.5.2.76.76,0,0,0,.51-.2.73.73,0,0,0,0-1h0a.71.71,0,0,0-1,0,.72.72,0,0,0,0,1Z"/><path d="M5.11,66.76a.71.71,0,0,0,.08,1.42h.08a.71.71,0,1,0-.16-1.42Z"/><path d="M6.81,72.53a.71.71,0,0,0-.23,1,.72.72,0,0,0,.61.34.76.76,0,0,0,.38-.11.72.72,0,0,0,.22-1A.71.71,0,0,0,6.81,72.53Z"/><path d="M4.77,72.76a.71.71,0,0,0-.47,1.35.59.59,0,0,0,.23,0,.72.72,0,0,0,.24-1.39Z"/><path d="M8.68,70.16a.71.71,0,0,0-.15,1.42h.08a.71.71,0,0,0,.07-1.42Z"/><path d="M3.91,27.48a.7.7,0,0,0-.9.44.71.71,0,0,0,.43.91,1,1,0,0,0,.24,0,.71.71,0,0,0,.23-1.39Z"/><path d="M6.36,23.57h0a.73.73,0,0,0,.51.21.71.71,0,0,0,.5-1.21h0a.7.7,0,0,0-1,0,.71.71,0,0,0,0,1Z"/><path d="M1.55,25.6a.71.71,0,0,0-.44.9.72.72,0,0,0,.68.48.66.66,0,0,0,.23,0,.71.71,0,1,0-.47-1.34Z"/><path d="M2.46,23a.71.71,0,0,0-1,.23h0a.71.71,0,0,0,.22,1,.76.76,0,0,0,.38.11.69.69,0,0,0,.6-.34A.71.71,0,0,0,2.46,23Z"/><path d="M7.83,24.88a.71.71,0,1,0-.16,1.42h.08a.71.71,0,0,0,.71-.63A.72.72,0,0,0,7.83,24.88Z"/><path d="M6,27.25a.71.71,0,0,0-.22,1,.73.73,0,0,0,.6.34.68.68,0,0,0,.38-.12A.71.71,0,1,0,6,27.25Z"/><path d="M4.26,21.48a.72.72,0,0,0-.63.79.71.71,0,0,0,.71.63h.08a.71.71,0,1,0-.16-1.42Z"/><path d="M98.66,24.67a.71.71,0,0,0-.43.91.73.73,0,0,0,.67.48.69.69,0,0,0,.24,0,.7.7,0,0,0,.43-.9A.72.72,0,0,0,98.66,24.67Z"/><path d="M103.47,22.65h0a.7.7,0,0,0,.5.21.69.69,0,0,0,.5-.21.71.71,0,0,0,0-1h0a.72.72,0,0,0-1,0,.7.7,0,0,0,0,1Z"/><path d="M99.57,22.08a.72.72,0,0,0-1,.23h0a.71.71,0,0,0,.23,1,.7.7,0,0,0,.37.11.73.73,0,0,0,.61-.33A.72.72,0,0,0,99.57,22.08Z"/><path d="M104.94,24a.7.7,0,0,0-.78.63.69.69,0,0,0,.62.78h.08a.71.71,0,0,0,.71-.64h0A.71.71,0,0,0,104.94,24Z"/><path d="M103.06,26.33a.71.71,0,0,0-.22,1,.73.73,0,0,0,.61.33.72.72,0,0,0,.37-.11.71.71,0,1,0-.76-1.2Z"/><path d="M101,26.56a.7.7,0,0,0-.9.44.71.71,0,0,0,.44.9.59.59,0,0,0,.23,0,.71.71,0,0,0,.23-1.38Z"/><path d="M101.37,20.56a.71.71,0,0,0,.08,1.41h.08a.72.72,0,0,0,.63-.79A.71.71,0,0,0,101.37,20.56Z"/><path d="M103.06,63.4a.54.54,0,0,0-.54.54v3.41a.54.54,0,1,0,1.07,0V63.94A.54.54,0,0,0,103.06,63.4Z"/><path d="M104.8,65.15h-3.41a.53.53,0,0,0-.54.53.54.54,0,0,0,.54.53h3.41a.54.54,0,0,0,.54-.53A.53.53,0,0,0,104.8,65.15Z"/><path d="M8.58,80.84a.53.53,0,0,0-.53.54V84.8a.53.53,0,0,0,.53.53.53.53,0,0,0,.53-.53V81.38A.54.54,0,0,0,8.58,80.84Z"/><path d="M10.32,82.59H6.91a.54.54,0,1,0,0,1.07h3.41a.54.54,0,1,0,0-1.07Z"/><path d="M37.7,76.93a.53.53,0,0,0-.53.53v3.42a.52.52,0,0,0,.53.53.53.53,0,0,0,.53-.53V77.46A.53.53,0,0,0,37.7,76.93Z"/><path d="M39.44,78.67H36a.54.54,0,1,0,0,1.07h3.41a.54.54,0,1,0,0-1.07Z"/><path d="M85.4,82.55a.54.54,0,0,0-.53.54V86.5a.54.54,0,1,0,1.07,0V83.09A.54.54,0,0,0,85.4,82.55Z"/><path d="M87.15,84.3H83.73a.54.54,0,1,0,0,1.07h3.42a.54.54,0,0,0,0-1.07Z"/><path d="M55.32,4.49A19.84,19.84,0,1,0,69.37,10.3,19.75,19.75,0,0,0,55.32,4.49Zm0,38.66a18.8,18.8,0,1,1,18.8-18.8A18.83,18.83,0,0,1,55.32,43.15Z"/><path d="M64.19,19.43H46.45A2.56,2.56,0,0,0,43.89,22V35a2.56,2.56,0,0,0,2.56,2.56H64.19A2.56,2.56,0,0,0,66.75,35V22A2.56,2.56,0,0,0,64.19,19.43ZM65.68,35a1.49,1.49,0,0,1-1.49,1.49H46.45A1.49,1.49,0,0,1,45,35V22a1.49,1.49,0,0,1,1.49-1.49H64.19A1.49,1.49,0,0,1,65.68,22Z"/><path d="M55.45,13.16H55.2a6.48,6.48,0,0,0-6.58,6.36v.34a.54.54,0,0,0,1.07,0v-.34a5.41,5.41,0,0,1,5.51-5.29h.25A5.4,5.4,0,0,1,61,19.52a.54.54,0,1,0,1.07,0A6.48,6.48,0,0,0,55.45,13.16Z"/><path d="M55.5,11.11h-.36c-5.07,0-9.19,3.73-9.19,8.3v.45a.53.53,0,0,0,.53.53.53.53,0,0,0,.53-.53v-.45c0-4,3.65-7.23,8.13-7.23h.36c4.48,0,8.13,3.25,8.13,7.23a.54.54,0,1,0,1.07,0C64.7,14.84,60.57,11.11,55.5,11.11Z"/><path d="M58.68,25.23a3.36,3.36,0,1,0-5.58,2.52l-.91,6.79a.51.51,0,0,0,.13.42.54.54,0,0,0,.4.18h4.94a.52.52,0,0,0,.4-.18.51.51,0,0,0,.13-.41l-.68-6.76A3.38,3.38,0,0,0,58.68,25.23Zm-2,1.88a.53.53,0,0,0-.23.49l.66,6.47H53.33l.87-6.47a.56.56,0,0,0-.22-.51,2.29,2.29,0,1,1,2.66,0Z"/><path d="M46.49,21.85a.53.53,0,0,0-.53.53v1a.54.54,0,1,0,1.07,0v-1A.54.54,0,0,0,46.49,21.85Z"/><path d="M49.13,34.38H47V25.23a.54.54,0,0,0-1.07,0v9.69a.53.53,0,0,0,.53.53h2.64a.54.54,0,0,0,0-1.07Z"/><path d="M85.05,15.24H79.93a6.9,6.9,0,0,0-5.16,2.3l-1.2,1.33a.54.54,0,0,0,0,.76.53.53,0,0,0,.35.13.54.54,0,0,0,.4-.17l1.2-1.34a5.87,5.87,0,0,1,4.37-1.95h5.12a.53.53,0,0,0,.53-.53A.53.53,0,0,0,85.05,15.24Z"/><path d="M97.36,6.55h-8a7,7,0,0,0-6,3.49l-3.12,5.45a.53.53,0,0,0,.2.73.59.59,0,0,0,.26.07.55.55,0,0,0,.47-.27l3.12-5.45a5.87,5.87,0,0,1,5.08-2.95h8a.54.54,0,1,0,0-1.07Z"/><path d="M104.41,2.49h-3.15a7,7,0,0,0-5,2.18L94.29,6.72a.53.53,0,0,0,0,.75.55.55,0,0,0,.37.15.56.56,0,0,0,.39-.17L97,5.4a5.88,5.88,0,0,1,4.26-1.84h3.15a.54.54,0,1,0,0-1.07Z"/><path d="M104,14.45h-2.3a5.79,5.79,0,0,1-4-1.6L91.13,6.7a.53.53,0,1,0-.73.77l6.53,6.16a6.89,6.89,0,0,0,4.75,1.89H104a.54.54,0,1,0,0-1.07Z"/><path d="M82.55,5.93a6.9,6.9,0,0,0-5.46-2.65H73.94a.53.53,0,0,0-.54.53.54.54,0,0,0,.54.53h3.15A5.81,5.81,0,0,1,81.7,6.59L84,9.51a.53.53,0,0,0,.42.21.57.57,0,0,0,.33-.11.54.54,0,0,0,.09-.75Z"/><path d="M71.09.85a3,3,0,1,0,3,3A3,3,0,0,0,71.09.85Zm0,5a2,2,0,1,1,2-2A2,2,0,0,1,71.09,5.84Z"/><path d="M87.89,12.74a3,3,0,1,0,3,3A3,3,0,0,0,87.89,12.74Zm0,5a2,2,0,1,1,2-2A2,2,0,0,1,87.89,17.73Z"/><path d="M106.83,12a3,3,0,1,0,3,3A3,3,0,0,0,106.83,12Zm0,5a2,2,0,1,1,2-2A2,2,0,0,1,106.83,17Z"/><path d="M107,0a3,3,0,1,0,3,3A3,3,0,0,0,107,0Zm0,5a2,2,0,1,1,2-2A1.95,1.95,0,0,1,107,5Z"/><path d="M99.57,4.77a2.32,2.32,0,1,0,2.31,2.31A2.31,2.31,0,0,0,99.57,4.77Zm0,3.56a1.25,1.25,0,1,1,1.25-1.25A1.25,1.25,0,0,1,99.57,8.33Z"/><path d="M35.23,17.54a6.9,6.9,0,0,0-5.16-2.3H25a.53.53,0,0,0-.53.53.53.53,0,0,0,.53.53h5.12a5.87,5.87,0,0,1,4.37,1.95l1.2,1.34a.54.54,0,0,0,.4.17.53.53,0,0,0,.35-.13.54.54,0,0,0,0-.76Z"/><path d="M26.69,10a7,7,0,0,0-6-3.49h-8a.54.54,0,1,0,0,1.07h8a5.9,5.9,0,0,1,5.09,3L28.88,16a.55.55,0,0,0,.47.27.59.59,0,0,0,.26-.07.53.53,0,0,0,.2-.73Z"/><path d="M13.78,4.67a7,7,0,0,0-5-2.18H5.59a.54.54,0,0,0,0,1.07H8.74A5.88,5.88,0,0,1,13,5.4l1.93,2.05a.56.56,0,0,0,.39.17.55.55,0,0,0,.37-.15.53.53,0,0,0,0-.75Z"/><path d="M18.87,6.7l-6.53,6.15a5.79,5.79,0,0,1-4,1.6H6a.54.54,0,1,0,0,1.07h2.3a6.89,6.89,0,0,0,4.75-1.89L19.6,7.47a.53.53,0,1,0-.73-.77Z"/><path d="M36.06,3.28H32.91a6.9,6.9,0,0,0-5.46,2.65L25.17,8.86a.54.54,0,0,0,.09.75.57.57,0,0,0,.33.11A.53.53,0,0,0,26,9.51L28.3,6.59a5.81,5.81,0,0,1,4.61-2.25h3.15a.54.54,0,0,0,.54-.53A.53.53,0,0,0,36.06,3.28Z"/><path d="M38.91.85a3,3,0,1,0,3,3A3,3,0,0,0,38.91.85Zm0,5a2,2,0,1,1,2-2A2,2,0,0,1,38.91,5.84Z"/><path d="M22.11,12.74a3,3,0,1,0,3,3A3,3,0,0,0,22.11,12.74Zm0,5a2,2,0,1,1,1.95-2A2,2,0,0,1,22.11,17.73Z"/><path d="M3.17,12a3,3,0,1,0,3,3A3,3,0,0,0,3.17,12Zm0,5a2,2,0,1,1,2-2A2,2,0,0,1,3.17,17Z"/><path d="M3,0a3,3,0,1,0,3,3A3,3,0,0,0,3,0ZM3,5A2,2,0,1,1,5,3,2,2,0,0,1,3,5Z"/><path d="M10.43,4.77a2.32,2.32,0,1,0,2.31,2.31A2.31,2.31,0,0,0,10.43,4.77Zm0,3.56a1.25,1.25,0,1,1,1.25-1.25A1.25,1.25,0,0,1,10.43,8.33Z"/><path d="M75.24,46.86a.53.53,0,0,0-.75,0,.54.54,0,0,0,0,.76l2,2a.55.55,0,0,0,.38.16.59.59,0,0,0,.38-.16.54.54,0,0,0,0-.75Z"/><path d="M104.48,36.52H78.57a.54.54,0,0,0-.54.54V55.21a.54.54,0,0,0,.54.54h25.91a.54.54,0,0,0,.54-.54V37.06A.54.54,0,0,0,104.48,36.52ZM104,54.68H79.1V37.59H104Z"/><path d="M103.9,37,91.8,48.3,79.28,37a.53.53,0,0,0-.75,0,.53.53,0,0,0,0,.75L91.45,49.42a.53.53,0,0,0,.36.13.5.5,0,0,0,.36-.14l12.46-11.6a.54.54,0,1,0-.73-.79Z"/><path d="M87.29,45.24a.53.53,0,0,0-.75,0l-8,9.29a.54.54,0,0,0,0,.75.53.53,0,0,0,.35.13.55.55,0,0,0,.41-.18l8-9.29A.53.53,0,0,0,87.29,45.24Z"/><path d="M96.66,44.82a.53.53,0,1,0-.83.67l8.24,10.06a.53.53,0,0,0,.41.2.54.54,0,0,0,.42-.87Z"/><path d="M78.92,43.77,77.5,42.5a.54.54,0,0,0-.74,0l-4.62,4.63a.51.51,0,0,0-.16.38.5.5,0,0,0,.17.38l5.77,5.41a.51.51,0,0,0,.36.15.53.53,0,0,0,.37-.92l-5.37-5,3.88-3.88,1,.93a.53.53,0,0,0,.71-.79Z"/><path d="M78.55,40.77l-1.5-1.21a.54.54,0,0,0-.73.06L71.41,45a.53.53,0,0,0,0,.75.54.54,0,0,0,.36.14.56.56,0,0,0,.4-.17l4.57-5,1.1.89a.54.54,0,1,0,.68-.83Z"/><path d="M106.33,34.67H97.22a.54.54,0,0,0,0,1.07h8.58V53.29a.54.54,0,1,0,1.07,0V35.21A.54.54,0,0,0,106.33,34.67Z"/><path d="M27.87,32.47H.68A.54.54,0,0,0,.14,33V55.93a.54.54,0,0,0,.54.53H27.87a.54.54,0,0,0,.54-.53V33A.54.54,0,0,0,27.87,32.47Zm-.53,22.92H1.21V33.53H27.34Z"/><path d="M8.44,36.81H2.81a.54.54,0,0,0,0,1.07H8.44a.54.54,0,0,0,0-1.07Z"/><path d="M25.74,36.81H10.29a.54.54,0,1,0,0,1.07H25.74a.54.54,0,0,0,0-1.07Z"/><path d="M11.93,40.37H2.81a.54.54,0,0,0,0,1.07h9.12a.54.54,0,0,0,0-1.07Z"/><path d="M25.74,40.37h-12a.54.54,0,1,0,0,1.07h12a.54.54,0,0,0,0-1.07Z"/><path d="M8.44,43.93H2.81a.54.54,0,0,0,0,1.07H8.44a.54.54,0,0,0,0-1.07Z"/><path d="M25.74,43.93H10.29a.54.54,0,1,0,0,1.07H25.74a.54.54,0,0,0,0-1.07Z"/><path d="M15,47.49H2.81a.54.54,0,0,0,0,1.07H15a.54.54,0,0,0,0-1.07Z"/><path d="M25.74,47.49h-8.9a.54.54,0,1,0,0,1.07h8.9a.54.54,0,0,0,0-1.07Z"/><path d="M8.44,51.05H2.81a.54.54,0,0,0,0,1.07H8.44a.54.54,0,0,0,0-1.07Z"/><path d="M25.74,51.05H10.29a.54.54,0,1,0,0,1.07H25.74a.54.54,0,0,0,0-1.07Z"/><path d="M27.87,36.24a.54.54,0,0,0,0,1.07,6.37,6.37,0,1,1,0,12.74.54.54,0,0,0,0,1.07,7.44,7.44,0,1,0,0-14.88Z"/><path d="M40,11.29H17.64a4.39,4.39,0,0,0-4.38,4.37V32.2a.54.54,0,1,0,1.07,0V15.66a3.31,3.31,0,0,1,3.31-3.31H40a.53.53,0,0,0,.53-.53A.53.53,0,0,0,40,11.29Z"/><path d="M95.05,55.14a.54.54,0,0,0-.54.54V63.5a3.31,3.31,0,0,1-3.31,3.31H17.64a3.32,3.32,0,0,1-3.31-3.31V56.32a.54.54,0,0,0-.53-.54.53.53,0,0,0-.53.54V63.5a4.38,4.38,0,0,0,4.37,4.38H91.2a4.39,4.39,0,0,0,4.38-4.38V55.68A.54.54,0,0,0,95.05,55.14Z"/><path d="M94.3,12.57a4.36,4.36,0,0,0-3.1-1.29H70.68a.53.53,0,0,0-.53.53.53.53,0,0,0,.53.53H91.2a3.31,3.31,0,0,1,3.31,3.31V36.45a.54.54,0,1,0,1.07,0V15.66A4.31,4.31,0,0,0,94.3,12.57Z"/><path d="M94.88,59.87H14a.54.54,0,0,0,0,1.07H94.88a.54.54,0,1,0,0-1.07Z"/><path d="M68.23,84.3H40.62a3.39,3.39,0,0,0-3.39,3.39v2.7a.54.54,0,0,0,.54.53H71.08a.53.53,0,0,0,.53-.53v-2.7A3.39,3.39,0,0,0,68.23,84.3Zm2.32,5.55H38.3V87.69a2.32,2.32,0,0,1,2.32-2.32H68.23a2.32,2.32,0,0,1,2.32,2.32Z"/><path d="M44.85,67.23a.53.53,0,0,0-.54.53V84.83a.54.54,0,1,0,1.07,0V67.76A.53.53,0,0,0,44.85,67.23Z"/><path d="M64,67.23a.53.53,0,0,0-.53.53V84.83a.54.54,0,1,0,1.07,0V67.76A.53.53,0,0,0,64,67.23Z"/><path d="M47.81,70a.53.53,0,0,0-.53.53v3.85a.53.53,0,0,0,.53.53.53.53,0,0,0,.53-.53V70.52A.53.53,0,0,0,47.81,70Z"/><path d="M55.28,82.52H48.34v-5a.54.54,0,0,0-.53-.54.53.53,0,0,0-.53.54v5.55a.53.53,0,0,0,.53.54h7.47a.54.54,0,1,0,0-1.07Z"/><path d="M10.86,89.85H5.59a.54.54,0,0,0,0,1.07h5.27a.54.54,0,0,0,0-1.07Z"/><path d="M38.48,89.85H16.84a.54.54,0,1,0,0,1.07H38.48a.54.54,0,1,0,0-1.07Z"/><path d="M86.33,89.85H71.09a.54.54,0,0,0,0,1.07H86.33a.54.54,0,0,0,0-1.07Z"/><path d="M94,89.85H90.74a.54.54,0,0,0,0,1.07H94a.54.54,0,0,0,0-1.07Z"/><path d="M48.05,46.86a2.62,2.62,0,0,0-.88-.15H46.1a.53.53,0,0,0-.53.53.53.53,0,0,0,.53.53h1.07a1.29,1.29,0,0,1,.51.1.58.58,0,0,0,.19,0,.53.53,0,0,0,.5-.35A.55.55,0,0,0,48.05,46.86Z"/><path d="M49.16,52.33a.54.54,0,0,0,.54-.53V50a.54.54,0,1,0-1.07,0V51.8A.53.53,0,0,0,49.16,52.33Z"/><path d="M42.77,46.78a2.52,2.52,0,0,0-1.67,1.4.53.53,0,0,0,.26.71.59.59,0,0,0,.22,0,.55.55,0,0,0,.49-.31,1.47,1.47,0,0,1,1-.81.54.54,0,1,0-.26-1Z"/><path d="M32.29,52.76H30.51a.54.54,0,1,0,0,1.07h1.78a.54.54,0,0,0,0-1.07Z"/><path d="M41.46,51.05a.53.53,0,0,0-.61.46,1.44,1.44,0,0,1-.7,1,.54.54,0,0,0,.28,1,.56.56,0,0,0,.27-.08,2.51,2.51,0,0,0,1.21-1.81A.53.53,0,0,0,41.46,51.05Z"/><path d="M37.27,52.76H35.49a.54.54,0,0,0,0,1.07h1.78a.54.54,0,1,0,0-1.07Z"/><path d="M59.93,55.56a.53.53,0,0,0-.74.13,1.45,1.45,0,0,1-1.09.62.54.54,0,0,0-.5.57.53.53,0,0,0,.53.5h0a2.54,2.54,0,0,0,1.9-1.08A.52.52,0,0,0,59.93,55.56Z"/><path d="M64,43.15a.53.53,0,0,0-.53.53v1.49a.54.54,0,0,0,.53.54.53.53,0,0,0,.53-.54V43.68A.52.52,0,0,0,64,43.15Z"/><path d="M63.87,47.86a.55.55,0,0,0-.76.08,1.43,1.43,0,0,1-1.13.55.53.53,0,0,0-.54.53.54.54,0,0,0,.54.53,2.52,2.52,0,0,0,2-.94A.55.55,0,0,0,63.87,47.86Z"/><path d="M54.93,56.32H53.15a.54.54,0,0,0,0,1.07h1.78a.54.54,0,0,0,0-1.07Z"/><path d="M60,50.55a.53.53,0,0,0-.53.53v1.78a.54.54,0,1,0,1.07,0V51.08A.54.54,0,0,0,60,50.55Z"/><path d="M50.32,56.06A1.48,1.48,0,0,1,49.7,55a.54.54,0,0,0-1.07.08,2.54,2.54,0,0,0,1.08,1.89A.52.52,0,0,0,50,57a.54.54,0,0,0,.44-.23A.52.52,0,0,0,50.32,56.06Z"/><path d="M80.65,32.32a.54.54,0,0,0-.55.52v1.8a.54.54,0,0,0,1.07,0V32.88A.54.54,0,0,0,80.65,32.32Z"/><path d="M78.79,21.86a2.46,2.46,0,0,0-1.29-.36h-.71a.54.54,0,1,0,0,1.07h.71a1.47,1.47,0,0,1,.74.2.57.57,0,0,0,.28.08.52.52,0,0,0,.45-.26A.52.52,0,0,0,78.79,21.86Z"/><path d="M81.17,25.67a1.48,1.48,0,0,1-1-.77.53.53,0,0,0-.72-.24.52.52,0,0,0-.23.71A2.49,2.49,0,0,0,81,26.71l.11,0a.53.53,0,0,0,.52-.43A.53.53,0,0,0,81.17,25.67Z"/><path d="M84.55,30.4H82.77a.54.54,0,1,0,0,1.07h1.78a.54.54,0,0,0,0-1.07Z"/><path d="M87.89,27.91a.53.53,0,0,0-.53.53v.5a1.47,1.47,0,0,1-.29.88.52.52,0,0,0,.11.74.46.46,0,0,0,.32.11.51.51,0,0,0,.42-.21,2.53,2.53,0,0,0,.51-1.52v-.5A.54.54,0,0,0,87.89,27.91Z"/><path d="M86.08,25.71H84.26a.54.54,0,0,0,0,1.07H86a.53.53,0,0,0,.53-.5A.52.52,0,0,0,86.08,25.71Z"/></g></g></svg>