<?xml version="1.0" encoding="utf-8"?>
<svg xmlns="http://www.w3.org/2000/svg" viewBox="0 0 119.74 102.73"><g><g><path d="M95.6,76.69H23a.6.6,0,0,1,0-1.19H95.6a.6.6,0,1,1,0,1.19Z"/><path d="M51.17,92.74a.59.59,0,0,1-.6-.59V83.91a.6.6,0,0,1,.6-.6.59.59,0,0,1,.59.6v8.24A.58.58,0,0,1,51.17,92.74Z"/><path d="M68.13,92.74a.59.59,0,0,1-.59-.59V83.91a.6.6,0,1,1,1.19,0v8.24A.59.59,0,0,1,68.13,92.74Z"/><path d="M74.84,96.83H72.19a.59.59,0,0,1-.59-.6.58.58,0,0,1,.59-.59h2.65a0,0,0,0,0,0,0V93.07a0,0,0,0,0,0,0H49.52a.59.59,0,0,1-.6-.59.6.6,0,0,1,.6-.6H74.84a1.25,1.25,0,0,1,1.24,1.24v2.52A1.25,1.25,0,0,1,74.84,96.83Z"/><path d="M68.07,96.83H44.33a1.24,1.24,0,0,1-1.23-1.24V93.15a1.24,1.24,0,0,1,1.23-1.24h1.46a.6.6,0,0,1,.6.6.59.59,0,0,1-.6.59H44.33a0,0,0,0,0,0,.05v2.44a0,0,0,0,0,0,0H68.07a.58.58,0,0,1,.59.59A.59.59,0,0,1,68.07,96.83Z"/><path d="M93.17,84.28H26a3.65,3.65,0,0,1-3.64-3.64v-34a.6.6,0,0,1,1.19,0v34A2.45,2.45,0,0,0,26,83.09H93.17a2.45,2.45,0,0,0,2.44-2.45V42.57a.6.6,0,0,1,.6-.59.59.59,0,0,1,.59.59V80.64A3.64,3.64,0,0,1,93.17,84.28Z"/><path d="M63.64,33.8H41.1a.58.58,0,0,1-.59-.59.59.59,0,0,1,.59-.6H63.64a.59.59,0,0,1,.59.6A.58.58,0,0,1,63.64,33.8Z"/><path d="M55.89,87.71H51.68a.6.6,0,0,1,0-1.19h4.21a.6.6,0,0,1,0,1.19Z"/><path d="M67.38,87.71H62a.6.6,0,0,1,0-1.19h5.39a.6.6,0,1,1,0,1.19Z"/><path d="M79,79.39H70.39a.59.59,0,0,1-.59-.6.58.58,0,0,1,.59-.59H79a.59.59,0,0,1,.6.59A.6.6,0,0,1,79,79.39Z"/><path d="M59.59,67.1h0a34.6,34.6,0,0,1-10.82-1.94A44.56,44.56,0,0,1,38,59.43a.64.64,0,0,1-.25-.48.6.6,0,0,1,.23-.48,43.91,43.91,0,0,1,10.77-6.42,29.41,29.41,0,0,1,10.84-2.21A28.79,28.79,0,0,1,70.42,52a42.23,42.23,0,0,1,10.77,6.52.55.55,0,0,1,.22.48.58.58,0,0,1-.25.46,44.61,44.61,0,0,1-10.77,5.74A32.32,32.32,0,0,1,59.59,67.1ZM39.33,58.91c13.44,9.21,27.06,9.22,40.5,0C66.38,48.33,53.11,48.32,39.33,58.91Z"/><path d="M59.57,67.05a8.65,8.65,0,0,1-8.64-8.64.6.6,0,0,1,1.19,0,7.45,7.45,0,1,0,1.77-4.82.6.6,0,1,1-.91-.77,8.64,8.64,0,1,1,6.59,14.23Z"/><path d="M59.57,61.1a2.69,2.69,0,1,1,2.69-2.69A2.69,2.69,0,0,1,59.57,61.1Zm0-4.19a1.5,1.5,0,1,0,1.5,1.5A1.5,1.5,0,0,0,59.57,56.91Z"/><path d="M37.14,47H6.06A4.56,4.56,0,0,1,1.5,42.4V22.5A4.56,4.56,0,0,1,6.06,18H37.14a4.55,4.55,0,0,1,4.55,4.55V42.4A4.56,4.56,0,0,1,37.14,47ZM6.06,19.13A3.38,3.38,0,0,0,2.69,22.5V42.4a3.37,3.37,0,0,0,3.37,3.37H37.14a3.38,3.38,0,0,0,3.37-3.37V22.5a3.38,3.38,0,0,0-3.37-3.37Z"/><path d="M55.85,33.52a.59.59,0,0,1-.6-.59V10.14a3.37,3.37,0,0,0-3.37-3.37H22.94a3.37,3.37,0,0,0-3.36,3.37v8.2a.6.6,0,0,1-.6.6.59.59,0,0,1-.59-.6v-8.2a4.56,4.56,0,0,1,4.55-4.56H51.88a4.56,4.56,0,0,1,4.56,4.56V32.93A.59.59,0,0,1,55.85,33.52Z"/><path d="M96.79,37.25a.58.58,0,0,1-.59.59H70.35a.59.59,0,0,1-.59-.59V24.09a.6.6,0,0,1,.59-.6H96.2a.59.59,0,0,1,.59.6ZM71,36.65H95.6v-12H71Z"/><path d="M110.71,28.33H96.48a.6.6,0,1,1,0-1.19h13.63v-11H83.87v7.61a.6.6,0,1,1-1.19,0v-8.2a.6.6,0,0,1,.6-.6h27.43a.59.59,0,0,1,.59.6V27.74A.59.59,0,0,1,110.71,28.33Z"/><path d="M33.84,27.25A3.14,3.14,0,1,1,37,24.11,3.15,3.15,0,0,1,33.84,27.25Zm0-5.09a1.95,1.95,0,1,0,1.95,1.95A1.95,1.95,0,0,0,33.84,22.16Z"/><path d="M26,24.68H5.31a.59.59,0,0,1-.6-.59.6.6,0,0,1,.6-.6H26a.59.59,0,0,1,.59.6A.58.58,0,0,1,26,24.68Z"/><path d="M18.07,42.56a.6.6,0,0,1-.6.6H5.27a.6.6,0,0,1-.6-.6V28.05a.59.59,0,0,1,.6-.59h12.2a.59.59,0,0,1,.6.59ZM5.86,42h11V28.65h-11Z"/><path d="M38.29,31.26H21.56a.59.59,0,0,1-.6-.59.6.6,0,0,1,.6-.6H38.29a.6.6,0,0,1,.59.6A.59.59,0,0,1,38.29,31.26Z"/><path d="M38.29,36.89H21.56a.59.59,0,0,1-.6-.59.6.6,0,0,1,.6-.6H38.29a.6.6,0,0,1,.59.6A.59.59,0,0,1,38.29,36.89Z"/><path d="M38.29,43.16H21.56a.6.6,0,0,1-.6-.6.59.59,0,0,1,.6-.59H38.29a.59.59,0,0,1,.59.59A.6.6,0,0,1,38.29,43.16Z"/><path d="M51.52,12H22.91a.6.6,0,1,1,0-1.19H51.52a.6.6,0,1,1,0,1.19Z"/><path d="M51.52,16.6H22.91a.6.6,0,0,1-.6-.6.59.59,0,0,1,.6-.59H51.52a.59.59,0,0,1,.6.59A.6.6,0,0,1,51.52,16.6Z"/><path d="M51.68,21.27H41.14a.63.63,0,1,1,0-1.26H51.68a.63.63,0,1,1,0,1.26Z"/><path d="M51.76,25.87H41.14a.59.59,0,0,1-.6-.59.6.6,0,0,1,.6-.6H51.76a.6.6,0,0,1,.6.6A.59.59,0,0,1,51.76,25.87Z"/><path d="M52,30.31H41.38a.59.59,0,0,1-.6-.59.6.6,0,0,1,.6-.6H52a.6.6,0,0,1,.6.6A.59.59,0,0,1,52,30.31Z"/><path d="M110.07,42.92H85.81a.59.59,0,0,1-.59-.6.58.58,0,0,1,.59-.59h24.26a6.55,6.55,0,0,0,6.54-6.54V17.35a6.54,6.54,0,0,0-6.54-6.54H71.15a6.54,6.54,0,0,0-6.54,6.54V35.19a6.55,6.55,0,0,0,6.54,6.54h8.58a.59.59,0,0,1,.6.59.6.6,0,0,1-.6.6H71.15a7.74,7.74,0,0,1-7.73-7.73V17.35a7.74,7.74,0,0,1,7.73-7.73h38.92a7.74,7.74,0,0,1,7.73,7.73V35.19A7.74,7.74,0,0,1,110.07,42.92Z"/><path d="M79.87,52a.6.6,0,0,1-.58-.45.59.59,0,0,1,.43-.72,7.58,7.58,0,0,0,5.55-8.17.6.6,0,0,1,.51-.67.59.59,0,0,1,.67.5A8.81,8.81,0,0,1,80,52Z"/><path d="M79.87,52a.63.63,0,0,1-.32-.1.59.59,0,0,1-.18-.82c2-3.15,2-5.8,0-8.35a.59.59,0,0,1,.1-.83.58.58,0,0,1,.83.1,7.36,7.36,0,0,1,1.74,4.9,9.51,9.51,0,0,1-1.7,4.82A.61.61,0,0,1,79.87,52Z"/><path d="M93.46,31.26H73.09a.59.59,0,0,1-.6-.59.6.6,0,0,1,.6-.6H93.46a.6.6,0,0,1,.6.6A.59.59,0,0,1,93.46,31.26Z"/><path d="M93.46,28.33H73.09a.6.6,0,1,1,0-1.19H93.46a.6.6,0,1,1,0,1.19Z"/><path d="M93.46,34H73.09a.6.6,0,1,1,0-1.19H93.46a.6.6,0,1,1,0,1.19Z"/><path d="M110.27,19.85H83.55a.6.6,0,0,1-.59-.6.59.59,0,0,1,.59-.59h26.72a.59.59,0,0,1,.6.59A.6.6,0,0,1,110.27,19.85Z"/><path d="M103,19.41a.59.59,0,0,1-.6-.59V15.57a.6.6,0,1,1,1.19,0v3.25A.59.59,0,0,1,103,19.41Z"/><path d="M109.5,47.48a.59.59,0,0,1-.59-.6V45.79a.59.59,0,0,1,1.18,0v1.09A.59.59,0,0,1,109.5,47.48Z"/><path d="M107,94.57H105.4a.6.6,0,1,1,0-1.19H107a2.54,2.54,0,0,0,.49,0,.59.59,0,1,1,.26,1.16A3.67,3.67,0,0,1,107,94.57Zm-5.64,0H99.13a.6.6,0,0,1,0-1.19h2.24a.6.6,0,0,1,0,1.19Zm-6.26,0H92.87a.6.6,0,1,1,0-1.19h2.24a.6.6,0,0,1,0,1.19Zm-6.27,0H86.6a.6.6,0,0,1,0-1.19h2.24a.6.6,0,1,1,0,1.19Zm20.66-3.24a.59.59,0,0,1-.59-.6V88.5a.59.59,0,1,1,1.18,0v2.23A.59.59,0,0,1,109.5,91.33Zm0-6.27a.58.58,0,0,1-.59-.59V82.23a.59.59,0,0,1,1.18,0v2.24A.58.58,0,0,1,109.5,85.06Zm0-6.26a.59.59,0,0,1-.59-.59V76a.59.59,0,1,1,1.18,0v2.24A.59.59,0,0,1,109.5,78.8Zm0-6.26a.59.59,0,0,1-.59-.6V69.7a.59.59,0,1,1,1.18,0v2.24A.59.59,0,0,1,109.5,72.54Zm0-6.27a.59.59,0,0,1-.59-.59V63.44a.59.59,0,1,1,1.18,0v2.24A.59.59,0,0,1,109.5,66.27Zm0-6.26a.59.59,0,0,1-.59-.6V57.17a.59.59,0,0,1,1.18,0v2.24A.59.59,0,0,1,109.5,60Zm0-6.27a.58.58,0,0,1-.59-.59V50.91a.59.59,0,0,1,1.18,0v2.24A.58.58,0,0,1,109.5,53.74Z"/><path d="M82.57,94.57H81.48a.6.6,0,0,1,0-1.19h1.09a.6.6,0,1,1,0,1.19Z"/><path d="M12,50.79a.6.6,0,0,1-.6-.6V49.1a.59.59,0,0,1,.6-.59.58.58,0,0,1,.59.59v1.09A.59.59,0,0,1,12,50.79Z"/><path d="M35.07,94.57H32.93a.6.6,0,0,1,0-1.19h2.14a.6.6,0,0,1,0,1.19Zm-6,0H27a.6.6,0,0,1,0-1.19h2.14a.6.6,0,0,1,0,1.19Zm-6,0H21a.6.6,0,0,1,0-1.19h2.14a.6.6,0,0,1,0,1.19Zm-6,0H15a.6.6,0,0,1,0-1.19h2.14a.6.6,0,0,1,0,1.19Zm-5-1.93a.58.58,0,0,1-.57-.46,5.19,5.19,0,0,1-.15-1.29v-1a.6.6,0,0,1,.6-.6.59.59,0,0,1,.59.6v1a4.46,4.46,0,0,0,.11,1,.6.6,0,0,1-.44.72Zm-.12-6a.6.6,0,0,1-.6-.6V83.94a.6.6,0,0,1,.6-.6.59.59,0,0,1,.59.6v2.13A.59.59,0,0,1,12,86.67Zm0-6a.6.6,0,0,1-.6-.6V78a.6.6,0,0,1,.6-.6.59.59,0,0,1,.59.6v2.13A.59.59,0,0,1,12,80.69Zm0-6a.6.6,0,0,1-.6-.6V72a.6.6,0,0,1,.6-.6.59.59,0,0,1,.59.6v2.13A.59.59,0,0,1,12,74.71Zm0-6a.6.6,0,0,1-.6-.6V66a.6.6,0,0,1,.6-.6.59.59,0,0,1,.59.6v2.13A.59.59,0,0,1,12,68.73Zm0-6a.6.6,0,0,1-.6-.6V60a.6.6,0,0,1,.6-.6.59.59,0,0,1,.59.6v2.13A.59.59,0,0,1,12,62.75Zm0-6a.6.6,0,0,1-.6-.6V54a.6.6,0,0,1,.6-.6.59.59,0,0,1,.59.6v2.13A.59.59,0,0,1,12,56.77Z"/><path d="M40,94.57H38.92a.6.6,0,1,1,0-1.19H40a.6.6,0,0,1,0,1.19Z"/><path d="M3.91,102.29h0a.79.79,0,0,1-.49-1h0a.8.8,0,0,1,1-.49h0a.8.8,0,0,1,.49,1h0a.79.79,0,0,1-.75.53h0A.75.75,0,0,1,3.91,102.29Zm2.54-.66a.81.81,0,0,1,.25-1.1h0a.79.79,0,0,1,1.09.25h0a.78.78,0,0,1-.24,1.09h0a.77.77,0,0,1-.43.13h0A.79.79,0,0,1,6.45,101.63ZM1.31,99.7a.8.8,0,0,1,.49-1h0a.8.8,0,0,1,1,.49h0a.8.8,0,0,1-.49,1h0a.75.75,0,0,1-.26,0h0A.79.79,0,0,1,1.31,99.7Zm7.31-.23a.79.79,0,0,1-.7-.87h0a.78.78,0,0,1,.87-.7h0a.79.79,0,0,1,.7.87h0a.79.79,0,0,1-.79.71H8.62ZM2,97.16a.8.8,0,0,1-.25-1.1h0a.79.79,0,0,1,1.09-.25h0a.8.8,0,0,1,.25,1.1h0a.79.79,0,0,1-.67.37h0A.79.79,0,0,1,2,97.16Zm5.19-.72h0a.79.79,0,0,1,0-1.12h0a.79.79,0,0,1,1.12,0h0a.79.79,0,0,1,0,1.12h0a.8.8,0,0,1-.56.23h0A.8.8,0,0,1,7.16,96.44Zm0,0ZM4.12,95a.79.79,0,0,1,.69-.88h0a.79.79,0,0,1,.88.7h0a.79.79,0,0,1-.7.87H4.9A.79.79,0,0,1,4.12,95Z"/><path d="M101.66,61.06a.79.79,0,0,1-.49-1h0a.79.79,0,0,1,1-.48h0a.8.8,0,0,1,.49,1h0a.81.81,0,0,1-.75.53h0A.75.75,0,0,1,101.66,61.06Zm2.54-.66a.79.79,0,0,1,.25-1.09h0a.78.78,0,0,1,1.09.25h0a.78.78,0,0,1-.24,1.09h0a.82.82,0,0,1-.43.12h0A.79.79,0,0,1,104.2,60.4Zm-5.14-1.92a.8.8,0,0,1,.49-1h0a.79.79,0,0,1,1,.48h0a.78.78,0,0,1-.48,1h0a.86.86,0,0,1-.27,0h0A.82.82,0,0,1,99.06,58.48Zm7.31-.23a.79.79,0,0,1-.7-.88h0a.79.79,0,0,1,.87-.7h0a.79.79,0,0,1,.7.88h0a.79.79,0,0,1-.78.7h-.09Zm-6.65-2.32a.79.79,0,0,1-.25-1.09h0a.78.78,0,0,1,1.09-.25h0a.79.79,0,0,1,.25,1.09h0a.79.79,0,0,1-.67.37h0A.81.81,0,0,1,99.72,55.93Zm5.19-.72h0a.79.79,0,0,1,0-1.12h0a.8.8,0,0,1,1.12,0h0a.79.79,0,0,1,0,1.12h0a.77.77,0,0,1-.56.24h0A.79.79,0,0,1,104.91,55.21Zm-3-1.45a.8.8,0,0,1,.69-.88h0a.81.81,0,0,1,.88.72h0a.82.82,0,0,1-.69.89h-.1A.8.8,0,0,1,101.87,53.76Z"/><path d="M113.71,102.37a.8.8,0,0,1-.49-1h0a.8.8,0,0,1,1-.49h0a.8.8,0,0,1,.49,1h0a.79.79,0,0,1-.75.53h0A.75.75,0,0,1,113.71,102.37Zm2.54-.66a.81.81,0,0,1,.25-1.1h0a.79.79,0,0,1,1.09.25h0a.78.78,0,0,1-.24,1.09h0a.75.75,0,0,1-.43.13h0A.81.81,0,0,1,116.25,101.71Zm-5.14-1.93a.8.8,0,0,1,.49-1h0a.79.79,0,0,1,1,.49h0a.79.79,0,0,1-.48,1h0a.84.84,0,0,1-.27,0h0A.8.8,0,0,1,111.11,99.78Zm7.31-.24a.78.78,0,0,1-.7-.89h0a.82.82,0,0,1,.87-.69h0a.8.8,0,0,1,.7.89h0a.79.79,0,0,1-.79.7h-.08Zm-6.65-2.31a.79.79,0,0,1-.25-1.09h0a.79.79,0,0,1,1.09-.25h0a.78.78,0,0,1,.25,1.09h0a.8.8,0,0,1-.67.38h0A.74.74,0,0,1,111.77,97.23Zm5.19-.71h0a.79.79,0,0,1,0-1.12h0a.79.79,0,0,1,1.12,0h0a.79.79,0,0,1,0,1.12h0a.8.8,0,0,1-.56.23h0A.82.82,0,0,1,117,96.52Zm-3-1.45a.79.79,0,0,1,.69-.88h0a.81.81,0,0,1,.88.71h0a.83.83,0,0,1-.69.9h0l-.09,0h0A.8.8,0,0,1,113.92,95.07Z"/><path d="M2.64,65.82h0a.8.8,0,0,1-.49-1h0a.8.8,0,0,1,1-.49h0a.8.8,0,0,1,.49,1h0a.79.79,0,0,1-.75.53h0A.75.75,0,0,1,2.64,65.82Zm2.54-.66a.79.79,0,0,1,.25-1.09h0a.79.79,0,0,1,1.1.24h0a.81.81,0,0,1-.25,1.1h0a.81.81,0,0,1-.42.12h0A.8.8,0,0,1,5.18,65.16ZM0,63.23a.8.8,0,0,1,.49-1h0a.8.8,0,0,1,1,.49h0a.79.79,0,0,1-.48,1h0a.86.86,0,0,1-.27.05h0A.81.81,0,0,1,0,63.23ZM7.35,63a.78.78,0,0,1-.7-.87h0a.79.79,0,0,1,.87-.7h0a.79.79,0,0,1,.7.87h0a.79.79,0,0,1-.78.71H7.35ZM.7,60.69a.8.8,0,0,1-.25-1.1h0a.79.79,0,0,1,1.09-.25h0a.81.81,0,0,1,.25,1.1h0a.79.79,0,0,1-.67.37h0A.81.81,0,0,1,.7,60.69ZM5.89,60h0a.8.8,0,0,1,0-1.13h0a.79.79,0,0,1,1.12,0H7A.79.79,0,0,1,7,60H7a.75.75,0,0,1-.56.23h0A.78.78,0,0,1,5.89,60Zm-3-1.45a.79.79,0,0,1,.7-.88h0a.8.8,0,0,1,.87.71h0a.83.83,0,0,1-.69.9h-.1A.81.81,0,0,1,2.85,58.52Z"/><path d="M6.05,13.81h0a.79.79,0,0,1-.49-1h0a.78.78,0,0,1,1-.48h0a.8.8,0,0,1,.49,1h0a.81.81,0,0,1-.75.53h0A.75.75,0,0,1,6.05,13.81Zm2.54-.66a.79.79,0,0,1,.25-1.09h0a.78.78,0,0,1,1.09.25h0a.78.78,0,0,1-.24,1.09h0a.82.82,0,0,1-.43.12h0A.79.79,0,0,1,8.59,13.15ZM3.45,11.23a.8.8,0,0,1,.49-1h0a.79.79,0,0,1,1,.48H5a.78.78,0,0,1-.49,1h0a.75.75,0,0,1-.26,0h0A.81.81,0,0,1,3.45,11.23ZM10.76,11a.79.79,0,0,1-.7-.88h0a.79.79,0,0,1,.87-.7h0a.79.79,0,0,1,.7.88h0a.79.79,0,0,1-.79.7h-.08ZM4.11,8.68a.79.79,0,0,1-.25-1.09h0A.78.78,0,0,1,5,7.34H5A.79.79,0,0,1,5.2,8.43h0a.79.79,0,0,1-.67.37h0A.81.81,0,0,1,4.11,8.68ZM9.3,8h0a.79.79,0,0,1,0-1.12h0a.79.79,0,0,1,1.12,0h0a.79.79,0,0,1,0,1.12h0a.77.77,0,0,1-.56.24h0A.79.79,0,0,1,9.3,8Zm-3-1.45A.8.8,0,0,1,7,5.63H7a.81.81,0,0,1,.88.72h0a.82.82,0,0,1-.7.89H7A.8.8,0,0,1,6.26,6.51Z"/><path d="M89.21,8.19h0c-.41,0-.63-.6-.49-1h0a.8.8,0,0,1,1-.49h0a.79.79,0,0,1,.49,1h0a.8.8,0,0,1-.75.53h0C89.39,8.23,89.3,8.19,89.21,8.19Zm2.55-.67A.78.78,0,0,1,92,6.43h0a.81.81,0,0,1,1.1.25h0a.79.79,0,0,1-.25,1.09h0a.81.81,0,0,1-.42.12h0A.78.78,0,0,1,91.76,7.52ZM86.62,5.6a.79.79,0,0,1,.48-1h0a.78.78,0,0,1,1,.48h0a.78.78,0,0,1-.48,1h0a.85.85,0,0,1-.26,0h0A.8.8,0,0,1,86.62,5.6Zm7.3-.23a.79.79,0,0,1-.7-.88h0a.8.8,0,0,1,.88-.7h0a.8.8,0,0,1,.7.88h0a.8.8,0,0,1-.79.7h-.09ZM87.27,3.05A.79.79,0,0,1,87,2h0a.79.79,0,0,1,1.09-.25h0a.78.78,0,0,1,.25,1.09h0a.78.78,0,0,1-.67.37h0A.81.81,0,0,1,87.27,3.05Zm5.19-.72h0a.8.8,0,0,1,0-1.12h0a.8.8,0,0,1,1.12,0h0a.81.81,0,0,1,0,1.12h0a.8.8,0,0,1-.57.24h0A.79.79,0,0,1,92.46,2.33Zm-3-1.45a.78.78,0,0,1,.7-.87h0A.8.8,0,0,1,91,.72h0a.83.83,0,0,1-.7.89h-.09A.81.81,0,0,1,89.42.88Z"/><path d="M28.73,90.52a.58.58,0,0,1-.59-.59V86.12a.59.59,0,0,1,.59-.59.6.6,0,0,1,.6.59v3.81A.59.59,0,0,1,28.73,90.52Z"/><path d="M30.67,88.66h-3.8a.59.59,0,0,1-.6-.59.6.6,0,0,1,.6-.6h3.8a.6.6,0,0,1,.6.6A.59.59,0,0,1,30.67,88.66Z"/><path d="M59,102.73a.59.59,0,0,1-.6-.59V98.33a.6.6,0,0,1,.6-.59.59.59,0,0,1,.59.59v3.81A.58.58,0,0,1,59,102.73Z"/><path d="M61,100.87H57.15a.6.6,0,0,1,0-1.19H61a.6.6,0,0,1,0,1.19Z"/><path d="M62.43,9.82a.6.6,0,0,1-.6-.6V5.42a.6.6,0,1,1,1.19,0v3.8A.6.6,0,0,1,62.43,9.82Z"/><path d="M64.37,8H60.56a.59.59,0,0,1-.59-.6.58.58,0,0,1,.59-.59h3.81a.58.58,0,0,1,.59.59A.59.59,0,0,1,64.37,8Z"/><path d="M4,78.87a.6.6,0,0,1-.6-.59V74.47a.59.59,0,0,1,.6-.59.58.58,0,0,1,.59.59v3.81A.59.59,0,0,1,4,78.87Z"/><path d="M5.94,77H2.13a.6.6,0,0,1-.59-.6.59.59,0,0,1,.59-.59H5.94a.58.58,0,0,1,.59.59A.59.59,0,0,1,5.94,77Z"/><path d="M117.21,75.62a.6.6,0,0,1-.6-.59V71.22a.59.59,0,0,1,.6-.59.58.58,0,0,1,.59.59V75A.59.59,0,0,1,117.21,75.62Z"/><path d="M119.15,73.76h-3.81a.6.6,0,0,1-.59-.6.59.59,0,0,1,.59-.59h3.81a.58.58,0,0,1,.59.59A.59.59,0,0,1,119.15,73.76Z"/><path d="M117.21,7.92a.6.6,0,0,1-.6-.6V3.52a.6.6,0,0,1,.6-.6.59.59,0,0,1,.59.6v3.8A.59.59,0,0,1,117.21,7.92Z"/><path d="M119.15,6.05h-3.81a.59.59,0,0,1-.59-.59.6.6,0,0,1,.59-.6h3.81a.59.59,0,0,1,.59.6A.58.58,0,0,1,119.15,6.05Z"/><path d="M60,70.65a47.5,47.5,0,0,1-10.29-1.21.59.59,0,1,1,.26-1.16c11.87,2.65,21.78.87,31.19-5.62a.58.58,0,0,1,.82.15.6.6,0,0,1-.15.83,38,38,0,0,1-15.34,6.45A37.56,37.56,0,0,1,60,70.65Z"/><path d="M37.83,54.39a.61.61,0,0,1-.49-.25.6.6,0,0,1,.15-.83,38.15,38.15,0,0,1,15.35-6.46,42.34,42.34,0,0,1,16.77.66.59.59,0,1,1-.26,1.16C57.48,46,47.57,47.8,38.17,54.29A.59.59,0,0,1,37.83,54.39Z"/></g></g></svg>